<svg width="40" height="40" viewBox="0 0 40 40" fill="none" xmlns="http://www.w3.org/2000/svg">
<g clip-path="url(#clip0_37_506)">
<path d="M29.9768 0H10.0232C4.48754 0 0 4.48754 0 10.0232V29.9768C0 35.5125 4.48754 40 10.0232 40H29.9768C35.5125 40 40 35.5125 40 29.9768V10.0232C40 4.48754 35.5125 0 29.9768 0Z" fill="white"/>
<path d="M26.9116 26.9126C33.6995 20.1247 36.108 11.5279 32.2911 7.71107C28.4743 3.89422 19.8775 6.30271 13.0896 13.0906C6.30173 19.8784 3.89324 28.4753 7.71009 32.2921C11.5269 36.109 20.1238 33.7005 26.9116 26.9126Z" fill="black"/>
<path d="M24.8452 19.2337H21.8604L23.9719 17.1223C24.0774 17.0167 24.0774 16.8439 23.9719 16.7351L23.2712 16.0345C23.1657 15.9289 22.9929 15.9289 22.8841 16.0345L20.7694 18.1492V15.1579C20.7694 15.0076 20.6479 14.886 20.4975 14.886H19.5089C19.3586 14.886 19.237 15.0076 19.237 15.1579V18.1492L17.1223 16.0345C17.0167 15.9289 16.844 15.9289 16.7352 16.0345L16.0346 16.7351C15.929 16.8407 15.929 17.0135 16.0346 17.1223L18.1461 19.2337H15.1516C15.0012 19.2337 14.8796 19.3553 14.8796 19.5057V20.4942C14.8796 20.6446 15.0012 20.7662 15.1516 20.7662H18.1429L16.0282 22.8809C15.9226 22.9864 15.9226 23.1592 16.0282 23.268L16.7288 23.9686C16.8344 24.0742 17.0071 24.0742 17.1159 23.9686L19.2306 21.8539V24.8452C19.2306 24.9956 19.3522 25.1171 19.5025 25.1171H20.4911C20.6415 25.1171 20.763 24.9956 20.763 24.8452V21.8539L22.8777 23.9686C22.9833 24.0742 23.1561 24.0742 23.2648 23.9686L23.9655 23.268C24.071 23.1624 24.071 22.9896 23.9655 22.8809L21.8508 20.7662H24.842C24.9924 20.7662 25.114 20.6446 25.114 20.4942V19.5057C25.114 19.3553 24.9924 19.2337 24.842 19.2337H24.8452Z" fill="white"/>
<path d="M27.8846 30.4087C24.7781 33.1409 21.2366 35.0316 17.7558 35.7834C16.6489 36.0234 15.5835 36.1417 14.5662 36.1417C11.7732 36.1417 9.37382 35.2428 7.63983 33.5056C5.2724 31.1382 4.46299 27.5454 5.36198 23.3896C6.22257 19.4098 8.56761 15.3499 11.9588 11.9588C19.0899 4.82766 28.758 2.88893 33.5088 7.63659C35.8763 10.004 36.6857 13.5968 35.7867 17.7526C35.086 20.9934 33.4001 24.2854 30.9686 27.2319M30.9686 27.2319C30.4152 27.9037 29.8201 28.5564 29.1899 29.1866C28.7644 29.6121 28.3325 30.0184 27.8878 30.4087M26.4225 28.7163C26.8256 28.3612 27.2223 27.9901 27.6094 27.603C28.3069 26.9056 28.9531 26.1793 29.5482 25.4307M29.5482 25.4307C31.5925 22.8617 33.0033 20.04 33.6016 17.2791C34.3342 13.8943 33.7392 11.031 31.9284 9.22021C30.5751 7.86693 28.6908 7.22389 26.5441 7.22389C22.5387 7.22389 17.6214 9.46655 13.5488 13.5424C10.4552 16.636 8.32767 20.3023 7.55665 23.8663C6.82403 27.2511 7.41908 30.1144 9.22985 31.9252C11.0406 33.7359 13.9039 34.331 17.2887 33.5984C20.408 32.9233 23.604 31.2085 26.4257 28.7195" fill="black"/>
</g>
<defs>
<clipPath id="clip0_37_506">
<rect width="40" height="40" fill="white"/>
</clipPath>
</defs>
</svg>
